<svg xmlns="http://www.w3.org/2000/svg" xmlns:xlink="http://www.w3.org/1999/xlink" height="500.0" preserveAspectRatio="xMidYMid meet" version="1.0" viewBox="0.0 0.0 551.7 500.0" width="551.7" zoomAndPan="magnify"><g id="change1_1"><path d="M43.872,138c3.152-15.386-6.248-32.547,0.999-46.481c2.821-5.424,7.84-9.415,13.237-12.288 c11.129-5.925,24.446-7.618,36.703-4.666c5.467-12.851,16.939-21.161,30.617-23.982c13.678-2.82,27.989-0.38,41.162,4.26 c8.002-7.858,15.957-13.966,25.303-20.166s20.164-10.652,31.378-10.806c17.596-0.242,33.697,9.987,46.536,22.022 c17.987-9.593,39.777-5.777,55.514,7.18c17.814-12.08,38.438-18.568,59.922-17.273c10.31,0.621,20.812,3.006,29.23,8.991 c8.418,5.985,14.397,16.072,13.456,26.358c17.578-5.178,38.058-8.657,54.057,0.277c10.639,5.941,17.646,17.015,21.245,28.656 c3.599,11.642,4.186,23.969,4.746,36.141L43.872,138z M58.171,473.747L492.574,490.5V138.193L58.171,150.984V473.747z" fill="#132633"/></g><g id="change2_1"><path d="M0,168.592V112.33l274.338-4.537h70.492l188.749,3.63l9.074,57.169H147.914H0z M4.537,186.741v57.169 L341.2,254.47l194.194-10.56l7.26-53.539l-75.318-3.63l-284.031-5.204L4.537,186.741z M4.537,266.596v60.807l226.862,9.066 l228.676-9.066l77.133-7.268l-3.63-53.539l-371.145,8.167l-148.821-8.167 M9.074,419.955l70.781-8.167h223.232l163.34-5.445h70.781 V336.47l-303.994,12.704L9.074,343.729V419.955z M156.988,490.5h394.739l-9.074-57.169l-188.749-3.63h-70.492L9.074,434.239V490.5 H156.988z" fill="#BF6528"/></g><g id="change3_1"><path d="M153.828,81.376c-0.355,4.376-3.903,8.294-8.222,9.08c-2.495,0.454-5.12-0.04-7.561,0.648 c-6.825,1.925-8.779,11.704-15.489,13.996c-4.116,1.406-8.551-0.524-12.469-2.413c-2.69-1.297-5.427-2.626-7.597-4.677 c-2.17-2.051-3.724-4.978-3.397-7.946c-1.732,1.676-4.879,1.148-6.375-0.741c-1.496-1.89-1.493-4.663-0.484-6.852 c1.009-2.189,2.867-3.874,4.847-5.248c6.298-4.368,14.364-6.101,21.9-4.705c-0.016-3.923,3.835-6.985,7.723-7.508 c3.888-0.523,7.757,0.832,11.447,2.165C144.511,69.473,154.861,72.464,153.828,81.376z M362.584,81.298 c3.287,1.837,6.74,3.722,10.504,3.832c3.764,0.11,7.887-2.19,8.483-5.908c6.92,2.495,14.828,2.109,21.473-1.047 c2.089-0.993,4.111-2.299,5.407-4.216s1.73-4.542,0.608-6.565c-1.123-2.022-4.021-3.012-5.922-1.694 c0.772-2.76-0.243-5.774-1.98-8.054c-1.736-2.28-4.121-3.965-6.467-5.612c-3.416-2.399-7.316-4.917-11.433-4.226 c-6.712,1.126-10.084,10.083-16.847,10.844c-2.418,0.272-4.828-0.605-7.261-0.563c-4.213,0.072-8.183,3.231-9.2,7.32 C347.582,73.687,356.918,78.131,362.584,81.298z M203.329,63.531c2.769,1.548,5.679,3.136,8.85,3.229s6.645-1.845,7.147-4.978 c5.83,2.102,12.493,1.777,18.091-0.882c1.76-0.836,3.464-1.937,4.556-3.552c1.092-1.614,1.458-3.827,0.512-5.531 c-0.946-1.704-3.388-2.538-4.989-1.428c0.651-2.325-0.205-4.865-1.668-6.786c-1.463-1.921-3.472-3.34-5.449-4.728 c-2.878-2.021-6.164-4.143-9.633-3.561c-5.655,0.949-8.496,8.496-14.194,9.136c-2.037,0.229-4.068-0.51-6.118-0.474 c-3.55,0.061-6.895,2.722-7.752,6.167C190.689,57.119,198.555,60.863,203.329,63.531z" fill="#2E7040"/></g><g id="change4_1"><path d="M72.431,104.338l4.925,150.132l-4.925,145.383V500H28.924V370.302l1.794-265.964H72.431z M475.595,161.172 c0,67.228,0,134.455,0,201.683V500h40.939l-0.694-28.818l-1.388-188.472l7.633-178.372c-16.422-0.431-32.844-0.862-49.266-1.293 L475.595,161.172z M318.997,65.146h8.382l-1.863-8.899l-12.41-20.101l-9.321-34.034L293.54,0l-18.316,24.298l-5.634,19.368 l-12.682,5.642v9.135l22.352-7.036l14.28-11.234L318.997,65.146z M219.688,47.771l7.622-3.487l-4.958-6.359l-18.657-10.951 L182.737,3.569l-10.091,2.568l-7.744,27.099l1.98,17.87l-9.463,9.799l3.35,7.323l17.745-14.94l8.866-14.947L219.688,47.771z" fill="#EBA039"/></g><g id="change5_1"><path d="M108.208,53.117c-2.088-1.127-3.458-3.905-2.271-5.96c1.207-2.09,4.094-2.285,6.507-2.228 c2.547,0.059,5.095,0.119,7.642,0.178c4.888,0.114,9.852,0.24,14.515,1.711c4.662,1.471,9.066,4.497,11.05,8.965 c1.017,2.29,1.119,5.444-0.962,6.841c-1.832,1.23-4.413,0.379-6.02-1.132c-1.608-1.512-2.598-3.555-3.989-5.268 c-3.082-3.795-8.271-5.546-13.057-4.901C116.811,51.972,113.266,55.847,108.208,53.117z M397.577,68.794 c4.924-0.15,10.004,2.175,12.731,6.35c1.231,1.885,2.02,4.063,3.492,5.766c1.472,1.703,4,2.839,5.989,1.784 c2.258-1.198,2.488-4.409,1.698-6.84c-1.542-4.743-5.691-8.278-10.266-10.262c-4.576-1.985-9.6-2.636-14.547-3.267 c-2.578-0.329-5.157-0.658-7.735-0.987c-2.442-0.312-5.392-0.419-6.837,1.575c-1.42,1.959-0.324,4.923,1.676,6.287 C388.621,72.503,392.626,68.945,397.577,68.794z M216.133,93.178c3.782-2.717,8.992-3.576,13.334-1.742 c1.96,0.828,3.729,2.119,5.782,2.678c2.053,0.559,4.635,0.114,5.637-1.763c1.138-2.131-0.377-4.77-2.28-6.259 c-3.713-2.905-8.832-3.486-13.467-2.627c-4.635,0.859-8.918,3-13.131,5.117c-2.195,1.103-4.391,2.206-6.586,3.31 c-2.079,1.045-4.449,2.518-4.53,4.844c-0.079,2.286,2.345,4.031,4.633,4.044C211.069,100.814,212.331,95.91,216.133,93.178z M480.13,78.123c-3.11,4.039-8.299,6.606-13.423,6.093c-2.313-0.232-4.571-1.006-6.897-0.928c-2.326,0.078-4.891,1.37-5.353,3.644 c-0.524,2.582,1.89,4.839,4.351,5.776c4.801,1.828,10.345,0.789,14.932-1.593c4.586-2.382,8.402-5.984,12.151-9.538 c1.954-1.852,3.908-3.704,5.862-5.557c1.85-1.754,3.871-4.048,3.226-6.492c-0.634-2.403-3.721-3.439-6.121-2.718 C483.042,68.557,483.257,74.062,480.13,78.123z M331.388,86.431c4.742-2.529,10.833-2.715,15.52,0.048 c2.115,1.247,3.941,2.995,6.205,3.948c2.263,0.953,5.285,0.839,6.719-1.154c1.628-2.264,0.299-5.514-1.65-7.508 c-3.803-3.891-9.569-5.339-15.003-5.066c-5.434,0.274-10.661,2.068-15.804,3.845c-2.68,0.926-5.36,1.852-8.04,2.778 c-2.538,0.877-5.475,2.2-5.923,4.848c-0.441,2.603,2.066,4.97,4.681,5.335C324.426,94.39,326.621,88.973,331.388,86.431z M93.44,95.346c3.261-3.338,8.256-5.091,12.86-4.034c2.079,0.477,4.049,1.444,6.172,1.64c2.124,0.195,4.595-0.692,5.259-2.719 c0.754-2.301-1.2-4.643-3.337-5.782c-4.169-2.223-9.323-1.908-13.75-0.255c-4.426,1.653-8.283,4.51-12.073,7.331 c-1.976,1.47-3.951,2.94-5.927,4.41c-1.871,1.392-3.954,3.258-3.63,5.568c0.319,2.27,3.015,3.572,5.275,3.188 C89.766,103.762,90.161,98.702,93.44,95.346z M423.622,55.454l11.485,11.58l1.933,11.139l-3.009,9.124l17.857-8.096l1.802-9.829 l0.459-9.478l6.021-5.237l-7.402-8.3L423.622,55.454z M151.595,75.668l16.298-0.619l9.509,6.115l4.682,8.39l6.123-18.626 l-6.017-7.978l-6.668-6.752l0.218-7.977l-11.12-0.167L151.595,75.668z M347.4,42.25c3.934-5.854,10.877-9.827,18.01-9.517 c3.22,0.14,6.413,1.039,9.623,0.747c3.21-0.291,6.64-2.287,7.072-5.481c0.49-3.627-3.054-6.573-6.542-7.681 c-6.806-2.162-14.379-0.284-20.506,3.384s-11.076,8.971-15.938,14.201c-2.534,2.726-5.068,5.452-7.601,8.178 c-2.4,2.582-4.986,5.925-3.872,9.27c1.095,3.287,5.459,4.484,8.713,3.295C344.243,55.765,343.445,48.136,347.4,42.25z" fill="#DA8C74"/></g><g id="change3_2"><path d="M428.334,57.841l-4.712-2.387l9.171-11.696l13.937-4.509l8.613,0.317l8.973,5.883l-4.145,9.21l-10.452-3.497 l-10.044,4.855L428.334,57.841z M436.176,73.195l-7.887,5.303l-5.956,7.845l6.257,1.654c6.411,1.015,12.821,2.031,19.232,3.046 c5.197-3.019,10.394-6.038,15.591-9.057l-5.648-12.459l-4.075-0.155l-7.782,8.785L436.176,73.195z M156.541,73.814l-4.946,1.854 l-2.405-14.667l6.111-13.312l6.061-6.127l10.403-2.625l3.976,9.285l-9.647,5.329l-3.222,10.681L156.541,73.814z M173.152,78.431 l-1.433,9.395l1.746,9.694l5.452-3.487c5.086-4.033,10.171-8.066,15.257-12.099c1.294-5.869,2.588-11.739,3.882-17.608 l-12.995-4.272l-2.872,2.896l1.202,11.675L173.152,78.431z" fill="#2E7040"/></g></svg>