<?xml version="1.0" encoding="UTF-8" standalone="no"?><svg xmlns="http://www.w3.org/2000/svg" xmlns:xlink="http://www.w3.org/1999/xlink" fill="#000000" height="545.6" preserveAspectRatio="xMidYMid meet" version="1" viewBox="0.0 -37.0 285.1 545.6" width="285.1" zoomAndPan="magnify"><g id="change1_1"><path d="M168.5,106.5c0,0,77.8,294.1,109.5,365.7c0,0-29.3,36.4-78.6,25.8C190,425.3,123.8,119,123.8,119 C159.7,81.6,168.5,106.5,168.5,106.5z" fill="#528b71"/></g><g id="change2_1"><path d="M0,39.4c2.6-0.7,38.8-11.2,38.8-11.2l7.9,14.5C68.5,45.9,78.3,26.9,79,23.6C79.7,20.3,222.5-37,285.1,40 c-40.2-17.8-93.5-17.8-102-2s-14.5,68.5-14.5,68.5c-23.7,9.9-39.5,14.5-44.8,12.5c-10.5-17.8-32.9-43.5-32.9-43.5 c-17.8-0.7-25.7,2.6-29,9.2v14.5l-35.6,14.5C26.3,113.8,2,99.9,0,39.4z" fill="#49bf88"/></g><g id="change3_1"><path d="M163.5,271.7l-1-0.4c14-38.5-3.3-123.8-20.4-142.7l0.8-0.7C160.1,147,177.6,232.9,163.5,271.7z M248.8,477.3 c-63.6-65.1-67.5-161.9-70.6-239.6c-2.1-51.6-3.8-96.1-22.5-118.6l-0.8,0.7c18.4,22.2,20.2,66.6,22.2,117.9 c3.1,77.9,7,174.9,70.9,240.3L248.8,477.3z M262.8,453.4c-76.7-63.2-74.6-182.7-70.1-231.1l-1-0.1c-4.5,48.6-6.7,168.4,70.5,232 L262.8,453.4z M248.8,409.1c-41.3-44.4-49.2-126.8-41.3-148.3l-1-0.4c-8,21.7-0.1,104.7,41.5,149.4L248.8,409.1z M226.8,487.8 c-19.1-26-35.8-83.8-36-84.3l-1,0.3c0.2,0.6,17,58.5,36.1,84.7L226.8,487.8z" fill="#437960"/></g><g id="change4_1"><path d="M24.6,105.3c-0.3-3.6-1.6-13.4-4.9-24.8c-2.6-9.1-7.2-21.7-14.2-30.1l1.6-1.3c13.9,16.7,19.1,49,19.6,56 L24.6,105.3z M49,45.9l-1.7,1.3c5,6.5,13.1,37.9,11.9,49.8l2.1,0.2C62.6,84.6,54.3,52.8,49,45.9z M93.4,29.9 c9.7-4.5,36.9-14.3,70.3-18.9c48-6.6,77.3,1.7,93.5,9.9l0.9-1.9C228.4,4,190.2,5.2,163.5,8.9c-33.3,4.6-60.4,14.3-70.5,18.9l-8.2-3 l-0.7,2l9,3.3L93.4,29.9z" fill="#2a7d56"/></g></svg>