<svg xmlns="http://www.w3.org/2000/svg" xmlns:xlink="http://www.w3.org/1999/xlink" fill="#000000" height="257.5" preserveAspectRatio="xMidYMid meet" version="1.1" viewBox="128.8 83.9 167.5 257.5" width="167.5" zoomAndPan="magnify">
 <g id="surface1">
  <g id="change1_1"><path d="m133.83 310.64l-5.01 30.7 19.16-25.55z" fill="#528b71"/></g>
  <g id="change1_2"><path d="m219.9 111.87h-19.49v-28.007h19.49v28.007" fill="#528b71"/></g>
  <g id="change1_3"><path d="m256.2 253.41h-85.49v-20.87h85.49v20.87" fill="#528b71"/></g>
  <g id="change2_1"><path d="m151.29 316.98l60.28-154.19 64.55 154.19 20.25-6.8-85.46-198.31-79.98 197.71 20.36 7.4" fill="#49bf88"/></g>
  <g id="change1_4"><path d="m246.11 137.33c0 19.86-16.1 35.95-35.95 35.95-19.86 0-35.96-16.09-35.96-35.95s16.1-35.96 35.96-35.96c19.85 0 35.95 16.1 35.95 35.96" fill="#528b71"/></g>
  <g id="change3_1"><path d="m229.32 137.33c0 10.58-8.59 19.15-19.16 19.15-10.59 0-19.16-8.57-19.16-19.15s8.57-19.17 19.16-19.17c10.57 0 19.16 8.59 19.16 19.17" fill="#ffffff"/></g>
  <g id="change1_5"><path d="m276.12 316.98l15.69 12.94 4.56-19.74z" fill="#528b71"/></g>
 </g>
</svg>