<svg xmlns="http://www.w3.org/2000/svg" xmlns:xlink="http://www.w3.org/1999/xlink" height="500.4" preserveAspectRatio="xMidYMid meet" version="1.0" viewBox="-0.1 0.0 314.3 500.4" width="314.3" zoomAndPan="magnify"><g id="change1_1"><path d="M124.2,332.1c-1-4.4-0.5-8.9-0.9-13.4c-0.5-5.1-0.2-10.1-0.4-15.2c-0.1-3.3-0.3-6.7-0.8-10 c-0.2-0.1-0.4,0-0.5,0.2c-2.2,5.1-5.2,9.8-7.7,14.8c-1.9,3.7-4,7.4-6,11.1c-0.8,1.5-1.9,2.9-3.1,4.1c-1.3,1.4-3.4,1.4-4.9,0.2 c-0.7-0.6-1.4-1.2-2.1-1.8c-0.7-0.5-1-1.3-1.1-2.2c-0.1-3.8,0.3-7.6,0.6-11.3c0.2-2.6,0.2-5.3,0.3-7.9c0.2-4.3,0.1-8.7,0.6-13 c0.3-3.3,0.5-6.6,0.9-9.8c0.4-2.7,0.7-5.4,1.1-8.1c0.3-2.1,0.3-4.1-0.1-6.2c-0.4-2.2-0.8-4.3-1.2-6.5c-0.3-1.5,0-3,0.1-4.5 c0.1-5,1.3-9.8,2.1-14.6c0.5-2.9,1.5-5.6,2.2-8.5c0.1-0.3,0.2-0.7,0.1-1.1c-0.4-0.4-1-0.4-1.5-0.6c-1.6-0.7-2.2-1.6-2.1-3.3 c0.3-4.3,1.1-8.5,2-12.7c1-4.2,1.8-8.5,2.5-12.8c0.8-4.7,1.8-9.2,3.9-13.5c0.1-0.2,0.1-0.4,0.2-0.8c-1.3,0.1-2.4-0.3-3.1-1.4 c-0.6-1.1-0.8-2.2-0.8-3.5c0.2-4.5,1.3-8.9,2.5-13.2c0.8-2.8,1.9-5.5,2.9-8.3c1.2-3.3,2.6-6.6,3.8-10c1.1-3,2.8-5.6,4.7-8.1 c3.7-4.9,6.9-10.1,10.7-15c2.4-3.2,4.2-6.8,6.7-9.9c1.4-1.8,2.9-3.5,4.4-5.3c0.9-1,1.6-2,2.3-3.1c1.6-2.7,3.7-5.1,5.4-7.7 c3.2-4.8,5.9-9.9,8.8-14.9c2-3.5,2.9-7.3,4.2-11.1c-3.4-1.1-6.3-2.8-8.1-6c-0.8,1.3-2,6.2-2.3,9.4c0,0.1-0.1,0.1-0.1,0.2 c-2.5,1.4-2.5,1.4-1.7,4.1c0.7,2.3,1.6,4.6,1.1,7.3c-2.2-0.4-4.2-0.7-5.5-2.9c-2.3-3.6-4.5-7.3-6.6-11c-1.9-3.5-3.1-7.2-4-11 c-0.8-3.3-1.2-6.6-1.2-10c0-6.3,1.2-12.3,3.2-18.3c1.2-3.6,3.3-6.6,5.3-9.8c0.6-0.9,1.6-1.6,2.6-2.2c0.8-0.5,1.1-1.1,1.3-1.8 c0.6-2.3,1.1-4.6,2-6.7c1.1-2.9,2.5-5.6,5.7-7.1c3.9-1.8,7.7-3.5,12-4.2c1.7-0.3,3.3-1.2,5.1-1.4c5.1-0.7,10.1-1.8,15.3-1.6 c2.9,0.2,5.9-0.2,8.8,0.4c0.4,0.1,0.8,0.1,1.2,0.3c2.8,1.4,5.8,2.3,8.4,4.1c0.8,0.5,1.4,1.2,2.2,1.7c3.3,2.1,5.9,5.1,8.9,7.6 c2.7,2.3,4.8,5.1,7.4,7.6c1.3,1.2,2.6,2.4,3.7,3.8c1,1.2,1.8,2.5,2.5,4c1,2,2.1,3.9,3.6,5.5c0.6,0.7,1,1.4,1.1,2.3 c0.3,1.7,0.9,3.4,1.5,5c0.7,1.9,1.1,4,1.6,6c0.9,4.2,1.7,8.5,2.6,12.8c0.1,0.3,0.2,0.7,0.3,1c1.1,2.6,1.4,5.4,1.4,8.1 c0,2.2,0.8,3.9,2.5,5.2c1.8,1.4,3.4,3.1,5.3,4.5c1,0.7,1.8,2,2.4,3.2c1.9,4.1,3.1,8.4,3.1,13c0.1,3.3,0.3,6.7,0.3,10 c0.1,4.7,0.1,9.4-0.1,14.1c-0.1,2.6-0.2,5.2-0.5,7.9c-0.3,2.6-0.1,5.1-0.1,7.7c-0.1,2.9,0.5,5.8,0,8.7c-0.1,0.7-0.1,1.4-0.3,2.1 c-0.8,2.6-0.7,5.3-1.5,7.9c-1.4,5-2.6,10.1-5,14.8c-0.7,1.4-1.4,2.7-2.4,4c-0.8,1.1-1.1,2.6-1.6,3.9c-0.2,0.5-0.3,1.1-0.7,1.5 c-1.7,1.5-2.3,3.6-3.1,5.5c-1.5,3.6-2.9,7.3-4.7,10.8c-0.4,0.8-0.7,1.7-1.1,2.6c-0.6,1.7-1.3,3.3-2.3,4.8c-1.4,2.1-2.1,4.5-3.1,6.8 c-2.3,5-5.4,9.6-8.4,14.2c-0.4,0.7-0.9,1.3-1.5,1.8c-3.3,3.5-5.4,7.9-8.8,11.3c-2.4,2.5-4.7,4.9-7.4,7c-1.3,1-2.6,2.2-3.8,3.4 c-2.1,2.2-4,4.7-6.9,6.1c-0.7,0.3-1.1,1-1.2,1.7c-0.1,1.2-0.7,2.3-0.6,3.6c0,0.7,0,1.5-0.4,2.1c-0.9,1.5-0.8,3.1-0.8,4.8 c0.1,6.1-1.4,12-3.2,17.8c-1.5,5-2.6,10-3.5,15.2c-0.6,3.2-1,6.5-1.5,9.7c-0.7,5.2-1.6,10.3-1.9,15.6c-0.3,5.1-0.6,10.2-1.9,15.3 c-1,3.9-1.2,8-1.9,12c-0.5,3-0.3,5.9-0.8,8.9c-1,6.7-1.1,13.5-2.1,20.2c-0.6,4.2-1,8.4-1.5,12.5c-0.5,3.9-1.1,7.8-1.4,11.7 c-0.4,5.2-0.9,10.4-1.6,15.6c-0.4,3.2-0.9,6.4-1.3,9.6c-0.4,3-0.6,6-1.1,8.9c-0.8,5.1-1.5,10.3-2.4,15.4c-0.7,3.9-1.5,7.8-1.6,11.8 c0,1-0.2,2-0.4,3c-0.3,2-0.7,4.1-1.1,6.2c-1.6-0.2-3.2-0.4-4.8-0.7c-0.5,1-0.8,1.9-0.8,2.9c-0.1,2.1-0.6,4.1-1.4,6 c-0.7,1.8-1.1,3.7-1.4,5.6c-0.3,1.9-0.7,3.8-2.6,5c-2.5,1.7-5,0.8-5.9-2c-0.9-2.9-1.9-5.7-3.1-8.4c-1.2-2.7-2.1-5.5-3.1-8.2 c-0.3-0.7-0.5-1.5-1-2.1c-2.7,0.1-5.2-0.6-7.7-1.6c-1.5-0.5-2.3-1.6-2.3-3.2c-0.1-5.1-0.9-10.2-0.9-15.4c0-1.4-0.3-2.8-0.4-4.2 c-0.3-5.7,0-11.4,0-17.1c0-5.6,0.1-11.1,0.5-16.7c0.2-3.4,0.6-6.8,0.7-10.2c0.2-3.6,0.1-7.1,0.2-10.7c0-3.2,0.1-6.4-0.2-9.6 c-0.3-3-0.3-6-0.6-8.9c-0.5-6-0.7-12-0.5-17.9c0.2-4.4,0.8-8.8,1.1-13.2c0.1-1,0.4-2.1-0.3-3l0,0c0.4-0.1,0.5-0.5,0.5-0.8 c0-2.1,0.5-4.2-0.1-6.2c-0.1-0.3,0-0.7,0-1C124.4,332.9,124.3,332.5,124.2,332.1z M143.7,25.6c0.1-0.1,0.3-0.2,0.1-0.4 c0,0-0.2,0.1-0.2,0.2c-0.1,0.1-0.4,0.2-0.2,0.4C143.5,25.9,143.6,25.7,143.7,25.6z M138.2,35.1c0.3-0.7,1.1-1.2,0.7-2.3 C138.2,33.5,137.9,34.2,138.2,35.1z M139.5,32.2l0.1-0.1L139.5,32.2L139.5,32.2z M124.3,333.2c0.1-0.4,0.1-0.7-0.1-1.1 C123.4,332.6,123.4,332.6,124.3,333.2z M123.5,341c0,0-0.1,0.1-0.1,0.2c0.1,0.3,0.3,0.2,0.4,0.1l0,0 C123.8,341.2,123.8,340.9,123.5,341z M138.9,32.7c-0.7,0.8-1,1.4-0.7,2.3C138.5,34.4,139.3,33.9,138.9,32.7z M143.7,25.6 c0.1-0.1,0.3-0.2,0.1-0.4c0,0-0.2,0.1-0.2,0.2C143.6,25.5,143.7,25.5,143.7,25.6z M143.5,25.4c-0.1,0.1-0.4,0.2-0.2,0.4 c0.2,0.2,0.3-0.1,0.4-0.2C143.7,25.5,143.6,25.5,143.5,25.4z M139.6,32.1h-0.1v0.1L139.6,32.1z" fill="#134ABA"/></g><g id="change2_1"><path d="M126.1,277.1c1.5,0.9,1.8,2.2,1.6,3.8c-0.1,0.9,0.2,2,0.4,2.9c1,4.6,1.9,9.2,3.1,13.8c0.6,2.5,1.4,5,2.2,7.5 c0.7,2.3,1.2,4.7,1.7,7c0.4,1.9,0.9,3.9,1.2,5.8c0.3,1.7,0.5,3.4,0.8,5c0.5,3,0.9,6,1.4,8.9c0,0.1,0.2,0.2,0.3,0.3 c0.7,0,0.5-0.6,0.6-0.9c0.4-0.9,0.8-1.8,1.7-2.4c1.2-0.7,2.5-0.5,3.3,0.7c0.4,0.7,0.7,1.4,1,2.1s0.4,1.5,1.1,2.1 c0.9-0.8,1.4-1.9,1.8-2.9c0.7-1.6,1.8-1.9,3.3-1.9c0.7-1.7,1.5-3.4,2-5.3s1.4-3.7,2.2-5.5c1.8-3.8,3.2-7.8,4.9-11.7 c0.8-1.9,1.7-3.8,2.8-5.5c1.4-2,2.2-4.3,2.9-6.6c1.6-5.2,3.8-10.2,6-15.2c1.1-2.7,2.6-5.2,3.2-8.1c0.5-2.2,1.6-4.3,2.6-6.3 c1-1.9,1.9-3.9,2.7-5.8c0.4-0.9,0.9-1.5,1.9-1.9c1.1-0.4,2.1,0,2.3,1.1c0.1,0.7,0.1,1.5-0.1,2.1c-0.8,1.7-0.8,3.5-1.3,5.2 c-0.8,2.6-0.9,5.3-1.9,7.9c-0.8,2.1-1,4.3-1.2,6.5c-0.5,5.2-1.6,10.3-2.5,15.4c-0.6,3.6-1.3,7.1-1.8,10.7c-0.1,1-0.3,2-0.5,2.9 c-0.8,2.8-0.9,5.8-1.2,8.7c-0.2,1.6-0.3,3.2-0.7,4.7c-0.7,2.6-1,5.3-1.4,8c-0.4,3.3-0.9,6.6-1.2,10c-0.3,4.3-0.8,8.5-1.3,12.7 c-0.3,3-0.4,6.1-0.7,9.1c-0.4,5-0.6,9.9-1.6,14.9c-0.5,2.7-0.4,5.5-0.8,8.3c-0.5,3.9-0.7,7.8-1.2,11.7c-0.4,3.4-1.3,6.7-1.8,10.1 c-0.5,3.2-1,6.3-1.4,9.5c-0.3,2.1-0.9,4-1.4,6c-0.6,2.8-0.7,5.7-1,8.5c-0.4,3.5-1,7.1-1.2,10.6c-0.2,4-1,8-1.4,12 c-0.4,4.2-1.3,8.4-2,12.6c-0.5,2.8-0.9,5.8-2.1,8.5c-0.8,1.8-1,3.8-1.4,5.8c-1,5-2.4,9.9-3.7,14.9c-0.3,1-0.4,2.1-1,3 c-1.2,1.8-2.7,2-4.5,0.7c-2.2-1.5-3-3.9-3.5-6.1c-0.6-2.7-1.6-5.3-2.4-8c-1.3-4.3-2.5-8.6-3.1-13.1c-0.5-3.9-0.9-7.9-0.4-12 c0.3-2.5,0.3-5,0.3-7.5c0-5.6,0.1-11.3-0.1-16.9c-0.2-6.8-0.4-13.7-0.8-20.5c-0.3-4.1,0-8.2-0.2-12.3c-0.3-4.4-0.2-8.7-0.4-13.1 c-0.2-6.8-0.3-13.5-0.6-20.3c-0.4-7.8-1.2-15.5-1.8-23.3c-0.3-4.3-0.6-8.5-1.1-12.8c-0.9-7.2-1.6-14.5-2.2-21.7c-0.3-4-0.5-8-0.9-12 c-0.3-3.9-0.7-7.8-1.3-11.7c-0.5-2.8-0.5-5.7-0.4-8.5C124.1,278,124.8,277.3,126.1,277.1z M205.9,251.8c2.8-0.7,5.7-1.3,8.5-2.2 c4.1-1.4,8.3-2.4,12.5-3.6c2.8-0.8,5.6-1.6,8.4-2.4c2.7-0.8,5.5-1.7,8.2-2.3c3.9-0.9,7.8-1.5,11.6-2.9c3.1-1.1,6.4-1.9,9.6-2.9 c2.4-0.8,4.7-1.8,7.1-2.4c5.1-1.4,10.2-2.5,15.5-3.2c3.7-0.5,7.4-1,11.1-1.1c2.6-0.1,5.3,0.1,8-0.1c1.9-0.1,4.1,0,4.9-2.5 c0.1-0.2,0.3-0.4,0.5-0.4c1.6,0.1,2-1.1,2.4-2.1c-0.3-0.6-1.1-0.3-1.1-1c0-0.5-0.3-0.5-0.7-0.5c-1.8-0.2-3.5-0.6-5.3-0.6 c-2.2,0-4.4-0.2-6.5-0.2c-4.6-0.1-9.1-0.2-13.7-0.1c-2.5,0-5.1,0.5-7.6,1.1c-3.5,0.9-7.1,1.4-10.6,2.4c-3.3,0.9-6.5,2.1-9.8,2.8 c-4,0.8-7.9,1.8-11.9,2.4c-5.8,1-11.2,3.2-16.5,5.7c-3.9,1.8-8,3-12,4.2c-5.6,1.8-11.5,2.4-17,4.6c-0.5,0.2-1.1,0.2-1.6-0.1 c-3.9-2.5-7.9-2.7-12.2-1.1c-0.3,0.1-0.6,0.2-0.8,0.2c-1.9-0.2-3.4,0.8-5.1,1.4c-1.4,0.4-2.7,1.1-2.8,3c0.7,1.2,2,1.1,3.3,0.9 c1.1-0.2,2.2-0.5,3.3-0.8c0.3,0.4,0.7,0.7,0.4,1.2c-0.7,0.3-1.5,0.5-2.2,0.6c-4.7,0.8-9.4,2.1-14.1,3.3c-3.2,0.8-6.3,1.7-9.6,2 c-1,0.1-2,0.2-2.8-0.6c-0.4-0.5-1.1-0.6-1.8-0.6c-4.1-0.1-8,0.5-10.9,4c0.4,0.7,0.8,1.3,1.2,1.9c-1.9,0.7-3.8,1-5.7,1.5 c-4.3,1.2-8.9,1.6-13,3.3c-0.2,0.1-0.4,0-0.6,0.1c-4.6,0.7-9,2.1-13.4,3.4c-2.4,0.7-4.7,1.5-7,2.4c-2.7,1.1-5.6,1.6-8.3,2.4 c-1.9,0.6-4,1.1-6,1.5c-2.3,0.5-4.6,1-6.8,1.7c-3.5,1.1-6.9,2.3-10.4,3.2c-3.4,0.9-6.9,1.7-10.4,2.5c-3.9,0.9-8,1.6-11.8,3.1 c-1.7,0.7-3.5,1.1-5.3,1.5c-4,1-8,2.2-12,3.1c-4.7,1-9.2,2.4-13.9,3.5c-3.9,1-7.8,2.3-11.7,3.4C6.4,297,3.7,298,1,298.9 c-0.8,0.3-1.1,0.6-1,1.6c0.2,1.8,0.1,3.6,0.1,5.5c0,1.2,0.1,2.2,0.7,3.3c0.9,1.7,1.8,2.3,3.7,1.7c1.8-0.5,3.7-1,5.5-1.8 c4.2-2,8.7-3.1,13.1-4.6c4.9-1.6,9.9-2.9,14.9-4.4c3.7-1.1,7.3-2.6,11-3.5c1.2-0.3,2.3-0.6,3.4-1.1c1.9-1,3.9-1.3,5.9-1.9 c3.6-1.1,7.2-2.2,10.8-3.3c2.7-0.9,5.2-2.2,8-2.8c2.3-0.5,4.5-1,6.8-1.9c2.8-1.1,5.8-2,8.7-2.8c3.8-1.1,7.7-2,11.4-3.3 c5.5-2,10.9-4,16.6-5.4c2.8-0.7,5.5-1.6,8.3-2.2c0.6-0.1,1.2-0.3,1.8-0.6c1.7-0.8,3.6-1.3,5.5-1.7c4.6-1,9.3-1.5,13.5-3.8 c0.5-0.3,1.2-0.7,2-0.5c0.2,0.4,0,0.7-0.2,1c-0.7,1.5-1.3,3-2,4.5c-0.5,1-0.4,1.9,0,2.8c0.2,0.6,0.8,0.8,1.2,0.7 c1.2-0.3,2.5-0.4,3-1.9s1.3-2.8,2-4.2c0.7-1.3,1.2-2.7,2.4-4.2c0.3,2.7,0.1,5.1-0.1,7.4c0.4,0.3,0.7,0.7,1.1,1 c0.1,0.1,0.3,0.1,0.4,0.2c2.2-0.8,2.8-1.4,2.8-3.6c0-2.5,0.2-5.1-0.4-7.7c0.9-0.2,1.6-0.5,2.4-0.2c0.2,0.9,0.3,1.8,0.6,2.7 c0.5,1.7,2.2,2.9,3.7,2.7c0.8-0.1,1.3-0.7,1-1.3c-0.6-1.1-0.2-2.4-0.8-3.5c-0.3-0.6-0.4-1.2,0-1.8c6-1.7,12-2.8,18.3-3.8 c-0.1,1.8,0.5,3.1,1.9,4c1.3-0.2,1.6-1.7,2.7-2.2c-0.1-1,0-1.9,0.2-2.8c0.3,0,0.6-0.1,0.9-0.1c0.1,0,0.2,0.2,0.3,0.2 c0.4,3.9,1.5,4.8,4.4,3.3c-1-0.7,0-1.4,0-2.1c-0.1-0.8,0.4-1.7,0-2.5c0.7-0.3,1.3-0.5,2-0.5c0.5,1.6,1,3.3,2.8,4.2 c0.3-0.7,1.2-0.3,1.6-1.1c-1.1-0.8,0.6-1,0.4-1.7c-0.1-0.8-0.6-1.5-0.3-2.3C204.5,251.9,205.3,252,205.9,251.8z M194.2,246.6 c-0.2-0.1-0.3-0.2-0.5-0.4c0.4-0.4,0.8-0.4,1.2,0C194.7,246.7,194.4,246.7,194.2,246.6z M147,259.4c-0.1,0.1-0.3,0.1-0.3-0.1 c0-0.1,0.1-0.3,0.2-0.3c0.1,0,0.2,0.1,0.4,0.1C147.2,259.2,147.1,259.3,147,259.4z M312.5,222.6l-0.1-0.1c0.1,0,0.2-0.1,0.3-0.1 l0.1,0.1C312.7,222.5,312.6,222.6,312.5,222.6z M170.9,42.1c-1.8-1.7-4.1-1.6-6.3-2.1c-1.2-0.3-2.6-0.1-3.7-0.7 c-1.2-0.7-2.3-1.5-3.5-2.2c-0.9-0.5-1.8-1.3-2.3-2.1c-1.6-3-3.6-5.7-5.1-8.7c-1.1-2.2-2.6-3.3-4.9-4c-1.8-0.6-3.4-0.3-4.6,0.8 c-1.6,1.4-3.2,2.8-4.5,4.6c-1.4,2-2.1,4.4-3.4,6.4c-1,1.5-1.5,3.2-2,4.9c-0.7,3.1-1.2,6.2-1.4,9.3c-0.3,4.9-0.4,9.8,1.4,14.5 c0.2,0.5,0.3,1.1,0.4,1.7c0.8,3.4,2.4,6.5,4.4,9.4c1.5,2.2,3,4.3,4.3,6.6c1.5,2.6,3.4,4.9,5.2,7.3c1.1,1.4,2.7,2.2,3.9,3.6 c1.1,1.3,3.1,0.4,3.4-1.4c0.2-1,0.1-2-0.1-3c-0.6-4.8-0.5-9.7-0.3-14.6c0-1,0.1-1.9,0.7-2.9c1.3,1.2,2.6,2.3,3.8,3.3 c1.7,1.3,3.6,2.2,5.7,2.1c3.6-0.2,6.6-2.1,9.4-4.2c1.8-1.3,2.7-3.3,3.8-5.1c0.9-1.4,0.7-2.2-0.6-3.4c-0.3-1.3,0.6-2.2,0.8-3.3 c0.9-3.8,1.1-7.6,0.7-11.4c-0.1-1.1-0.4-2.1-1-2.8c-1.1-0.7-1.8,0.4-2.7,0.2c-0.2-0.7,0.3-1.3,0.3-1.8 C172.2,42,171.3,42.5,170.9,42.1z M171.3,49.4c-0.3,0.3-0.5,0.7-0.5,1.2c-0.5,2.6-2.2,4.5-3.4,6.8c-1.5,2.8-4.1,4-6.8,5.1 c-0.4,0.1-0.7,0.1-1,0c-1.4-0.2-2.8-0.3-4.3-0.5c0.4-0.9,0.9-1.4,1.8-1.5c4.3-0.7,7.7-3.1,10.9-6c1.8-1.6,2-3.9,2.7-5.9 c0.4-1.3,0.2-1.4,1.4-2.7C172,47.2,172.2,48.4,171.3,49.4z M171.7,176.5c-0.7,0.9-1.2,2-2,2.8c-1.1,1.1-2.3,0.8-2.6-0.6 c-0.1-0.7-0.5-1.3-0.6-2c-0.2-1.6-0.4-3.2-0.6-4.8c-0.9-0.4-1.7-0.2-2.4-0.4c-0.9,1.2-1.7,2.4-2.6,3.5c-0.9,1.1-1.9,2.1-2.8,3.2 c-0.8,1.1-2.1,1.6-3.4,1.2c-1.2-0.3-1.7-1.5-1.9-2.6c-0.3-1.3-0.4-2.5-0.3-3.8c0.1-0.7-0.1-1.3-0.9-1.4c-0.5-0.1-0.9-0.5-1.5-0.3 c-0.3,0.2-0.6,0.5-0.8,0.9c-1,1.6-2.1,3.3-3.1,4.9c-0.9,1.4-2.2,2.4-3.8,3.1c-1.6,0.7-2.7,0.4-3.8-0.9c-0.9-1.2-1.4-2.5-1.4-3.9 c0-1.6,0-3.3,0.1-4.9c0.1-0.9-0.1-1.7-0.9-2.2c-1.4-0.2-2.2,0.4-2.7,1.7c-0.5,1.5-1.7,2.8-2.7,4.1c-0.5,0.6-1.1,1.3-2.4,1.1 c-1.4-5,0.8-9.8,0.6-14.8c-0.6-0.1-0.8-1.1-1.6-1c-0.5,0.3-0.7,0.9-0.8,1.4c-0.3,1.4-0.4,2.8-0.7,4.2c-0.6,3.2-0.8,6.4-0.7,9.6 c0.1,1.7,0.9,3,2.4,3.7s2.9,0.2,4.2-0.8c0.5-0.4,0.9-1.1,1.6-1.3c0.2,0.4,0.4,0.7,0.5,1.1c0.3,1.7,1.2,3.2,2.3,4.5 c1.8,2.2,5.1,2.7,7.5,1.3c2.2-1.3,4.1-2.8,5.5-4.9c0.6,0.4,0.6,1.1,0.9,1.5c0.7,1,1.4,2,2.6,2.5c2.5,1.1,4.8,0.8,6.9-1.1 c1.2-1.1,2.3-2.3,3.5-3.5c0.4,1.1,0.6,1.9,1,2.8c1.5,3.6,5.6,3.6,7.7,1.3c0.5-0.6,1-1.2,1.5-1.8c2.6,0.4,3,0.3,4.3-2 c0.9-1.6,1.9-3,2.9-4.5c1.1-1.6,2.3-3.1,3.3-4.7c0.8-1.2,1.3-2.5,1.1-4c-1.9-0.8-2.4-0.7-3.2,1c-0.3,0.7-0.7,1.4-1.2,2.1 c-1.8,2.4-3.7,4.9-5.3,7.7C173.1,174.6,172.9,175.1,171.7,176.5z M117.8,204.2c-0.2,2.8-0.1,5.6,0,8.4c0,1.6,0.5,3.2,1.3,4.7 c0.7,1.3,1.9,2.1,3.3,2.1c1.5,0,3.1-0.2,4.5-1.1c1.3-0.8,2.2-2,3.3-3c0.5,0.6,0.6,1.4,0.9,2.1c0.9,2.1,2.3,3.3,4.7,3.5 c2.2,0.2,3.7-0.7,4.8-2.5c0.7-1.2,1.5-2.3,2.3-3.6c0.5,0.9,0.9,1.6,1.3,2.2c1.2,1.5,3.1,1.4,4.1-0.2c0.4-0.6,0.5-1.3,0.8-2 c0.4-0.9,0.6-1.9,1.3-2.5c0.2,0,0.3,0,0.4,0.1c2.9,3,5.5,2.6,7.8-0.7c0.8-1.1,1.5-2.4,2.6-3.3c2.5,1.6,3.5,1.3,4.6-1.3 c1.1-2.4,2.2-4.8,3.7-7c0.5-0.8,0.8-1.6,1.2-2.5c0.4-1-0.1-2.6-0.9-3.2c-0.4,0-0.9,0.1-1.4,0.1c-0.9,1.4-1,3.3-2.2,4.7 c-1.2,1.3-1.4,3.2-2.6,4.5c-1-0.1-1.7-0.7-2.7-0.5c-0.4,0.5-0.9,1-1.3,1.6c-1.3,1.8-2.6,3.6-3.9,5.4c-0.9,1.1-1.5,1-2.1-0.3 c-0.2-0.5-0.3-1-0.3-1.5c-0.1-0.8-0.1-1.7-0.7-2.7c-0.7,0.4-1.2-0.4-2.1-0.2c-1.9,2.1-2.7,5-4.2,7.7c-0.7-1.2-0.6-2.4-0.6-3.5 c0-1-0.4-1.5-1.4-1.5c-0.3,0-0.7-0.2-1.1,0c-1.1,1.4-2.2,2.9-2.9,4.6c-0.6,1.4-1.5,2.6-2.3,3.8c-1.1,1.5-2.6,1.4-3.5-0.2 c-0.9-1.5-1.2-3.1-1.4-4.8c-0.2-1.4-0.7-2.6-2.3-2.8c-0.4,0.3-0.8,0.4-1.1,0.9c-0.6,1.3-1.5,2.4-2.1,3.7c-0.6,1.2-1.7,1.9-2.9,2.5 c-1.5,0.7-2.7,0.1-3.1-1.4c-0.2-0.5-0.2-1.1-0.3-1.7c-0.5-2.7-0.4-5.4-0.3-8.1c0-1.4-0.4-2.3-1.9-2.8 C118,202.8,117.8,203.5,117.8,204.2z M130.8,242.2c-0.3,0.6-0.6,1.2-0.8,1.8c-0.7,1.6-1.3,3.2-2,4.7c-0.3,0.7-0.5,1.5-1.5,1.7 c-0.6-0.7-0.7-1.6-0.9-2.5c-0.5-2-1.9-2.4-3.5-1c-0.7,0.6-1.1,1.3-1.5,2.1c-0.8,1.5-1.5,2.9-2.3,4.3c-0.7,1.1-1.6,1.2-2.4,0.2 c-0.4-0.5-0.8-1.1-0.9-1.7c-0.4-1.6-0.9-3.3-0.8-5.1c-0.7,0-0.8-0.8-1.4-1c-0.9,0.3-1.4,1-1.2,1.9c0.2,1,0.1,2,0.3,3 c0.3,1.8,0.8,3.5,2,4.9c2,2.3,5.2,2,6.8-0.5c0.8-1.2,1.2-2.7,2.3-3.8c0.7,0.5,0.8,1.3,1.2,1.8c1.4,1.8,3.4,1.8,4.9,0.2 c0.5-0.6,0.9-1.3,1.2-2c0.7-1.5,1.5-3,2.3-4.5c2.9,1.4,4,1.2,6-1c0.7-0.8,1.5-1.3,2.3-2.1c2.5,0.5,3.1,0.2,4.5-2.4 c0.8-1.5,1.7-3,2.5-4.5c0.4-0.7,0.8-1.4,1.7-1.8c1.4-0.6,1.6-1.5,1.2-3.4c-0.8,0-1.7,0.3-2.5,0c-0.7-0.2-1.1,0.1-1.5,0.8 c-0.4,0.9-1.1,1.7-1.6,2.5c-0.9,1.4-1.7,2.9-2.6,4.4c-0.6-0.6-0.8-1.4-1.8-1.5c-0.6,0.3-1.3,0.4-1.7,1.3c-0.8,2.1-2.5,3.5-4.1,5.1 c-1.1-0.9-0.6-2.3-1.3-3.3C131.7,240.4,131.7,240.5,130.8,242.2z M189.8,82.7c1.3-0.3,2.1,0.6,3,1.3c1.9,1.7,3.2,3.8,3.8,6.3 c0.4,1.6,0.7,3.2,1.2,4.8c0.6,2,0.7,2,3,1.7c-0.3-0.7,0.3-1.3,0.1-2c-0.5-2.8-1-5.6-2.3-8.2c-1.2-2.2-2.8-4.1-4.8-5.6 c-2.2-1.7-3.9-1.6-5.9,0.8C188.7,81.9,188.9,82.9,189.8,82.7z M179.7,21.1c-1.2,0-3,1.9-3.1,4c-0.1,2.2,1.8,4.5,3.9,4.6 c2.2,0.1,3.8-1.7,3.9-4.3C184.5,23.2,182.2,21.2,179.7,21.1z M207.2,90.4c-1-1.7-1.6-3.5-2.4-5.2c-0.4-0.9-0.9-1.8-1.6-2.5 c-1.3-1.4-2.1-1.3-3.4,0.3c1.6,1.7,2.6,3.9,3.4,6.1c0.4,1.1,0.9,2.1,1.4,3.1c0.5,1.1,1.3,1.8,2.8,1.7 C207.6,92.6,207.8,91.5,207.2,90.4z M223.9,80.8c0-0.3,0-0.5-0.1-0.7c-0.1-0.3-0.1-0.6-0.4-0.7c-1.6,1-1.8,1.5-1.3,3.1 c0.4,1.3,1,2.7,1.5,4c0.3,0.8,1.3,1.3,2.1,0.9c0.7-0.4,1.4-0.9,1.9-1.5c0.4-0.6,0.5-1.4,0.5-2.2c-0.1-1.3-1-2.4-0.9-3.7 C225.5,78.7,224.6,79.6,223.9,80.8z M213.1,92.9c0.2-0.1,0.1-0.5,0.2-0.8c0.1-0.4,0.1-0.8-0.1-1.2c-0.4-0.8-0.5-1.6-0.9-2.4 c-1-2-1.9-4.1-3.6-5.7c-1.2-1-2.2-1.4-3.5-0.4c0.3,1.2,0.3,1.3,1.1,1.8c0.5,0.3,0.8,0.8,1.2,1.2c1.2,1.5,1.9,3.2,2.5,4.9 c0.4,1.2,0.8,2.5,2,3C212.5,93.6,212.8,93.1,213.1,92.9z M212.2,84.5c0.9,1.7,1.9,3.2,2.1,5.2c0.2,1.9,0.6,2.1,2.6,2.4 c0.9-0.8,1.3-1.5,0.5-2.7c-0.4-0.6-0.6-1.4-0.7-2.2c-0.2-1.1-0.7-2.2-1.4-3.1c-1.3-1.6-2.2-1.6-3.5,0.1 C212,84.4,212.1,84.4,212.2,84.5z M219.2,88.4c0.4,0.8,0.9,1.5,1.8,1.6c1,0.1,1.2-0.8,1.6-1.5c0.1-0.1,0-0.3,0.1-0.4 c-0.6-1.2-1.6-2-2.1-3.2c-0.5-1.3-1-2.6-2.5-3.2c-0.1,0-0.1-0.3-0.1-0.4c-0.4,0.5-0.8,0.9-1.4,1.6C217.5,84.8,218.4,86.5,219.2,88.4 z M146.9,258.9c-0.1,0-0.2,0.2-0.2,0.3c0,0.2,0.2,0.2,0.3,0.1s0.1-0.2,0.2-0.3C147.1,259,147,258.9,146.9,258.9z" fill="#26221C"/></g><g id="change3_1"><path d="M173.6,40.8c2,1.6,3.1,3.6,3.4,6.2c0.1,0.8,0.4,1.7,0.7,2.5c1.1,3.6,1.2,7.3,1.1,11 c-0.2,3.8-1.4,7.5-4.2,10.3c-3.1,3.1-7.1,4-11.4,3.4c-0.1,0-0.2,0.3-0.4,0c-0.6-0.9-1.8-1.2-2.1-2.4c0.6-2,2.5-2.6,4.2-3.1 c1.5-0.4,2.5-1.2,3.3-2.5c0.6-0.9,1.2-1.8,1.9-2.6c1-1.1,1.7-2.4,2.1-3.9c0.9-3.2,1.6-6.5,1.2-9.9c-0.2-2.2-0.1-4.4-1.2-6.5 C171.8,42.4,172.2,41.9,173.6,40.8z M165.6,41.7c-0.2-1.9-0.5-2.3-2.3-2.6c-0.3-0.1-0.7-0.1-1.1-0.2c-4-0.7-6.4-3.5-6.4-7.6 c0-2.5-0.3-4.9-1.2-7.3c-1.6-4.2-4.4-5-8-5c-1.3,0-2.6,0.7-3.6,1.7c-0.9,0.9-0.2,1.9-0.1,2.8c0.2,1.3,0.5,1.5,1.7,1.2 c1.7-0.4,2.8,0.4,3.7,1.6c1,1.2,1.7,2.6,2,4.2c0.3,2,1.2,3.8,1.8,5.7c1.1,3.1,5.9,6.3,9.5,6.5c1.3,0.1,2.7,0.8,4.1-0.4 C165.7,42.1,165.6,41.9,165.6,41.7z M183.2,32.6c1.4-0.8,2.5-1.9,3.3-3.3c1-1.7,1.3-3.5,0.9-5.4c-0.4-2-1.5-3.4-3.4-4.3 c-4.2-2-7.3-0.8-9.6,2.6c-0.8,1.2-1.3,2.5-1,3.9c1,4.3,3.1,6.7,7.8,7C181.9,33.1,182.6,33,183.2,32.6z M181,31.2 c-0.8,0.1-1.6,0-2.3-0.4c-1.5-0.8-3.3-4.5-1.9-6.2c0.4-0.5,0.7-1.1,1-1.6c1.2-1.6,2.2-1.9,4-1s3.1,2.3,3,4.1 C184.9,28.9,183.3,30.8,181,31.2z" fill="#FFB54A"/></g></svg>