<svg xmlns="http://www.w3.org/2000/svg" xmlns:xlink="http://www.w3.org/1999/xlink" fill="#000000" height="182.8" preserveAspectRatio="xMidYMid meet" version="1.1" viewBox="166.1 121.1 102.7 182.8" width="102.7" zoomAndPan="magnify">
 <g id="surface1">
  <g id="change1_1"><path d="m199.77 228.11l30.38 0.18s3.97-106.92-14.55-107.03c-18.53-0.11-15.83 106.85-15.83 106.85" fill="#49bf88"/></g>
  <g id="change2_1"><path d="m199.63 211.8c0.02-3.91 0.07-8.31 0.17-13.01l30.68 0.19c0.04 4.7 0.04 9.09 0.01 13l-30.86-0.18" fill="#437960"/></g>
  <g id="change3_1"><path d="m230.52 211.73c-0.11 7.09-0.29 14.53-0.29 14.53l-30.48-0.19s-0.1-7.44-0.12-14.52l30.89 0.18" fill="#235d42"/></g>
  <g id="change4_1"><path d="m199.77 226.16s-33.72 15.75-7.25 44.16c0 0 15.44 18.08 13.86 33.62 0 0 62.42-38.5 23.86-77.6l-30.47-0.18" fill="#49bf88"/></g>
 </g>
</svg>