<svg xmlns="http://www.w3.org/2000/svg" xmlns:xlink="http://www.w3.org/1999/xlink" fill="#000000" height="489.7" preserveAspectRatio="xMidYMid meet" version="1" viewBox="0.0 0.0 378.2 489.7" width="378.2" zoomAndPan="magnify"><g id="change1_1"><path clip-rule="evenodd" d="M207,341.5c-4.4,5.7-3,8.8,4.1,9.3c47.3-1.1,91.9-22.3,122.6-58.3 c30.7-36,44.5-83.5,38-130.4c-49.3,64-166.9,70.4-180.1,151.1c-3.6-57.6-5.4-115.2,0.4-172.6C236.3,79.4,272,48.3,342.5,24.8 C260.1,12.3,209,44.2,189.3,120.2C194.9,58.4,168.6,19.9,107.9,0c44.1,33,57.4,73.1,73.5,126.6c-4.2,34.7-6.6,69.7-7.8,104.6 c-5.9-29.7-22.3-56.9-46-77.3C93.8,125,42.9,111.9,0,123.8c66.4,35,27.1,148.8,160.9,145.2c-14-43.5-43-87.2-87.6-109 c39.6,9,72.3,42.3,90.5,79.8c12.5,25.6,9.2,55.4,8.5,83.6c-1.3,53.9,2.7,92.3,4.5,146.2l24.4-0.3c-1.4-42.5-20.4-124.6,5.4-156.9 c22.3-27.9,59.3-57.3,100-71.5C273.5,261.2,228.8,304.9,207,341.5" fill="#49bf88" fill-rule="evenodd"/></g><g id="change2_1"><path clip-rule="evenodd" d="M186.7,489.7c55.3,0,100.2-2.5,100.2-5.6c0-3.1-44.8-5.6-100.2-5.6 c-55.3,0-100.2,2.5-100.2,5.6C86.5,487.2,131.4,489.7,186.7,489.7" fill="#437960" fill-rule="evenodd"/></g><g id="change1_2"><path clip-rule="evenodd" d="M186.7,470.1c98.8,0,178.8-3.1,178.8-6.8c0-3.8-80.1-6.8-178.8-6.8 S7.9,459.5,7.9,463.2C7.9,467,87.9,470.1,186.7,470.1" fill="#49bf88" fill-rule="evenodd"/></g></svg>